<?xml version="1.0" encoding="UTF-8"?>
<svg width="105.09mm" height="82.258mm" version="1.1" viewBox="0 0 105.09 82.258" xmlns="http://www.w3.org/2000/svg" xmlns:cc="http://creativecommons.org/ns#" xmlns:dc="http://purl.org/dc/elements/1.1/" xmlns:rdf="http://www.w3.org/1999/02/22-rdf-syntax-ns#">
 <metadata>
 </metadata>
 <g transform="translate(-34.835 -91.255)" stroke-width=".127">
  <path d="m83.917 140.45c-1.3582-0.20918-2.8458-0.97074-3.7515-1.9204l-0.40518-0.42487 1.0503-1.4282c1.0503-1.4282 1.0503-1.4282 1.3577-1.0932 1.3207 1.4395 3.6638 1.9785 4.5871 1.0552 0.83113-0.83113 0.29976-1.6047-1.9063-2.7752-2.3577-1.251-2.8799-1.9216-2.8806-3.6992-2e-3 -4.1278 5.1888-6.1399 9.1814-3.5593l0.78189 0.50536-0.84422 1.3698c-0.46432 0.75337-0.85755 1.388-0.87385 1.4102-0.0163 0.0223-0.31285-0.163-0.659-0.41168-1.5223-1.0937-3.0264-1.119-3.4657-0.0585-0.29324 0.70795 0.10158 1.083 2.3813 2.2623 2.0967 1.0846 2.7829 2.1564 2.6774 4.1821-0.16492 3.1682-3.3439 5.1842-7.2308 4.5855zm-14.959-0.40689c4e-3 -0.0882 0.53469-3.3037 1.1788-7.1454l1.1711-6.985 4.3457-0.0334c2.3901-0.0184 4.3453 0.0102 4.3449 0.0635-5.1e-4 0.0533-0.11438 0.75414-0.25316 1.5574-0.13877 0.80327-0.25269 1.5034-0.25316 1.5558-5e-4 0.0524-1.057 0.0952-2.3479 0.0952-2.3308 0-2.3475 2e-3 -2.4096 0.28575-0.11381 0.52001-0.3233 1.7901-0.3233 1.9601 0 0.13172 0.46082 0.16718 2.1728 0.16718 2.1728 0 2.1728 0 2.1051 0.28575-0.0372 0.15716-0.13261 0.74295-0.212 1.3018-0.0794 0.5588-0.17285 1.1147-0.20772 1.2353-0.0563 0.19494-0.30545 0.22314-2.2437 0.254l-2.1804 0.0347-0.15372 0.889c-0.28051 1.6223-0.51495 1.4605 2.1167 1.4605 2.6587 0 2.4069-0.22592 2.0525 1.8415l-0.21774 1.27-4.3464 0.0334c-3.4374 0.0264-4.3448-1.3e-4 -4.3387-0.127zm23.792-0.18889c0.04-0.19389 0.55936-3.2958 1.154-6.893 0.59469-3.5973 1.1123-6.6751 1.1503-6.8395 0.0983-0.42587 6.4389-0.36408 7.7761 0.0758 3.997 1.3147 3.7619 6.6968-0.35084 8.0332l-1.001 0.32523 1.2815 1.9649c0.70484 1.0807 1.5302 2.352 1.8341 2.825l0.55259 0.86012-4.5978-0.0692-0.88692-1.651c-0.4878-0.90805-1.1515-2.1368-1.4749-2.7305l-0.58802-1.0795-0.90652 5.461-2.0077 0.035c-2.0077 0.035-2.0077 0.035-1.9349-0.3175zm7.9071-7.6975c1.5006-0.78052 1.4944-2.917-0.01-3.3721-0.56632-0.17137-1.7658-0.27704-1.9261-0.16968-0.11722 0.0785-0.69757 3.1854-0.69083 3.6983 3e-3 0.23787 2.1097 0.11234 2.6266-0.15652z" fill="#1f1a17"/>
  <path d="m113.32 99.608c9.4082 0.39571 17.392 4.0461 21.043 9.6209 4.4225 6.7536 3.4353 16.421-2.734 26.774-7.8477 13.169-19.293 23.305-33.893 30.018-23.958 11.015-47.56 9.7853-58.001-3.0211-2.403-2.9475-4.635-7.3472-4.8725-9.605-0.0641-0.60911-0.035-0.56151 0.38477 0.63 2.7556 7.8213 10.198 12.997 21.563 14.995 4.5003 0.79133 15.35-0.21182 22.373-2.0684 17.947-4.7451 34.575-18.404 40.354-33.151 4.6877-11.961 2.3604-21.971-5.8491-25.159-8.2823-3.2161-18.362-2.6201-28.31 1.6738-2.8936 1.249-7.0423 3.4848-6.8294 3.6806 0.0293 0.027 2.5258 0.42383 5.5478 0.88207 3.0221 0.45824 5.4817 0.84556 5.4659 0.86069-0.0158 0.0152-2.4255 0.67151-5.3549 1.4586-2.9294 0.7871-8.3735 2.2525-12.098 3.2564-3.7247 1.0039-6.7983 1.7994-6.8304 1.7677-0.20159-0.19929 2.0227-2.7958 3.7948-4.4298 4.4776-4.1286 13.022-10.257 16.683-11.967 9.2974-4.3406 19.178-6.569 27.563-6.2163z" fill="#e0a90e"/>
  <path d="m61.14 164.9c-9.4058-0.44817-17.37-4.143-20.989-9.7381-4.3848-6.7782-3.3437-16.44 2.8832-26.758 7.921-13.125 19.422-23.197 34.06-29.828 24.019-10.881 47.614-9.5199 57.983 3.3445 2.3865 2.9608 4.5939 7.3729 4.8189 9.632 0.0607 0.60945 0.0319 0.56169-0.38125-0.63215-2.7119-7.8365-10.125-13.053-21.479-15.115-4.4958-0.8164-15.351 0.12622-22.384 1.9437-17.973 4.6449-34.677 18.211-40.538 32.925-4.7543 11.934-2.4829 21.957 5.7087 25.191 8.2642 3.2622 18.347 2.7225 28.319-1.5159 2.9006-1.2328 7.0616-3.4455 6.8498-3.6424-0.0291-0.0271-2.5234-0.4379-5.5428-0.91299-3.0195-0.47509-5.4769-0.87611-5.461-0.89116 0.0159-0.0151 2.4292-0.65797 5.3629-1.4287s8.386-2.2058 12.116-3.1889c3.7302-0.98314 6.8082-1.7615 6.8401-1.7296 0.20045 0.20046-2.0382 2.7844-3.8194 4.4085-4.5005 4.1036-13.079 10.185-16.749 11.873-9.3214 4.2887-19.214 6.462-27.597 6.0625z" fill="#1f1a17"/>
 </g>
</svg>
